# xmcd
#
# Track frame offsets:
#	150
#	2320
#	22090
#	43612
#	63425
#	80187
#	101665
#	122270
#	142627
#	165065
#	187817
#	209990
#
# Disc length: 3167 seconds
#
# Revision: 1
# Processed by: cddbd v1.5.1PL0 Copyright (c) Steve Scherf et al.
# Submitted via: CDex 1.50Beta5
#
DISCID=900c5d0c
DTITLE=VOICE - Crescendo
DYEAR=1995
DGENRE=
TTITLE0=PRELUDE〜明日へのPRELUDE〜
TTITLE1=ロザリヤの涙
TTITLE2=好きやねん〜But game is over
TTITLE3=君と僕の朝に
TTITLE4=CALL MY NAME
TTITLE5=短い夏が逃げてゆく
TTITLE6=RAIN
TTITLE7=ときめかないで
TTITLE8=愛する人へ…
TTITLE9=夏の日に雪が降る
TTITLE10=明日へのPRELUDE
TTITLE11=Prayer〜祈り
EXTD=
EXTT0=
EXTT1=
EXTT2=
EXTT3=
EXTT4=
EXTT5=
EXTT6=
EXTT7=
EXTT8=
EXTT9=
EXTT10=
EXTT11=
PLAYORDER=
